# xmcd
# 
# Track frame offsets:
#     150
#     30260
#     47045
# 
# Disc length: 1026
# 
# Revision: 2
# Processed by: cddbd v1.5.2PL0 Copyright (c) Steve Scherf et al.
# Submitted via: BonkEnc v1.0.5
# 
DISCID=18040003
DTITLE=女王様 - 踊る女王様　女王様物語第二章
DYEAR=0
DGENRE=
TTITLE0=踊る女王様　女王様物語第二章 　〜踊る女王様〜
TTITLE1=踊る女王様　女王様物語第二章 　〜踊る女王様〜 Radio Edit
TTITLE2=踊る女王様　女王様物語第二章 　〜踊る女王様〜 Original Karaoke
EXTD=
EXTT0=
EXTT1=
EXTT2=
PLAYORDER=
